<?xml version="1.0" encoding="UTF-8" standalone="no"?>
<!-- Generator: Adobe Illustrator 16.0.1, SVG Export Plug-In . SVG Version: 6.00 Build 0)  -->

<svg
   xmlns:dc="http://purl.org/dc/elements/1.1/"
   xmlns:cc="http://creativecommons.org/ns#"
   xmlns:rdf="http://www.w3.org/1999/02/22-rdf-syntax-ns#"
   xmlns:svg="http://www.w3.org/2000/svg"
   xmlns="http://www.w3.org/2000/svg"
   xmlns:sodipodi="http://sodipodi.sourceforge.net/DTD/sodipodi-0.dtd"
   xmlns:inkscape="http://www.inkscape.org/namespaces/inkscape"
   version="1.1"
   id="Layer_2"
   x="0px"
   y="0px"
   width="273.13699"
   height="108.118"
   viewBox="0 0 273.13699 108.118"
   enable-background="new 0 0 504 360"
   xml:space="preserve"
   inkscape:version="0.48.4 r9939"
   sodipodi:docname="phet-logo-short.svg"><metadata
   id="metadata3008"><rdf:RDF><cc:Work
       rdf:about=""><dc:format>image/svg+xml</dc:format><dc:type
         rdf:resource="http://purl.org/dc/dcmitype/StillImage" /></cc:Work></rdf:RDF></metadata><defs
   id="defs3006" /><sodipodi:namedview
   pagecolor="#ffffff"
   bordercolor="#666666"
   borderopacity="1"
   objecttolerance="10"
   gridtolerance="10"
   guidetolerance="10"
   inkscape:pageopacity="0"
   inkscape:pageshadow="2"
   inkscape:window-width="640"
   inkscape:window-height="480"
   id="namedview3004"
   showgrid="false"
   fit-margin-top="0"
   fit-margin-left="0"
   fit-margin-right="0"
   fit-margin-bottom="0"
   inkscape:zoom="1.6277778"
   inkscape:cx="136.568"
   inkscape:cy="54.059"
   inkscape:window-x="0"
   inkscape:window-y="0"
   inkscape:window-maximized="0"
   inkscape:current-layer="Layer_2" />
<g
   id="g2986"
   transform="translate(-115.432,-125.941)">
	<g
   id="g2988">
		<path
   d="m 149.432,150.07 h -32 c -1.104,0 -2,0.896 -2,2 v 79.988 c 0,1.104 0.896,2 2,2 h 17.66 c 1.104,0 2,-0.896 2,-2 v -20.93 c 0,-1.105 0.895,-2 2,-2 h 10.34 c 20.398,0 32.109,-10.83 32.109,-29.592 0,-18.638 -11.711,-29.466 -32.109,-29.466 z m -2.015,41.176 h -8.326 c -1.105,0 -2,-0.896 -2,-2 v -19.547 c 0,-1.105 0.895,-2 2,-2 h 8.326 c 9.568,0 12.59,6.547 12.59,11.838 0,5.541 -3.022,11.709 -12.59,11.709 z"
   id="path2990"
   inkscape:connector-curvature="0"
   style="fill:#6acef5" />
		<path
   d="m 386.568,150.07 h -122.81 c -1.104,0 -2,0.896 -2,2 v 79.988 c 0,1.104 0.896,2 2,2 h 54.556 c 1.104,0 2,-0.896 2,-2 v -13.754 c 0,-1.105 -0.896,-2 -2,-2 h -33.896 c -0.553,0 -1,-0.447 -1,-1 v -13.363 c 0,-0.553 0.447,-1 1,-1 H 313.4 c 1.104,0 2,-0.896 2,-2 v -13.754 c 0,-1.104 -0.896,-2 -2,-2 h -28.981 c -0.553,0 -1,-0.448 -1,-1 v -13.489 c 0,-0.552 0.447,-1 1,-1 l 57.057,0.063 c 0.553,0 1,0.449 1,1 v 63.297 c 0,1.104 0.896,2 2,2 h 17.66 c 1.104,0 2,-0.896 2,-2 v -63.297 c 0,-0.551 0.447,-1 1,-1 h 21.433 c 1.104,0 2,-0.896 2,-2 V 152.07 c -0.001,-1.103 -0.896,-2 -2.001,-2 z"
   id="path2992"
   inkscape:connector-curvature="0"
   style="fill:#6acef5" />
	</g>
	<g
   id="g2994">
		<path
   d="m 235.488,172.742 c -0.799,2.488 -1.557,5.004 -2.244,7.569 -0.145,0.539 -0.283,1.091 -0.423,1.64 -6.436,27.812 -2.946,45.998 -1.735,51.919 0.281,0.118 0.58,0.188 0.882,0.188 h 16.331 c 1.105,0 2,-0.896 2,-2 v -35.02 c 0,-11.607 -5.252,-20.318 -14.811,-24.296 z"
   id="path2996"
   inkscape:connector-curvature="0"
   style="fill:#f2e916" />
		<path
   d="M 211.767,171.099 V 149.3 c 0,-1.104 -0.896,-2 -2,-2 h -17.658 c -1.104,0 -2,0.896 -2,2 v 82.759 c 0,1.104 0.896,2 2,2 h 11.109 c 0.504,0 0.991,-0.191 1.393,-0.495 3.131,-25.071 12.497,-46.884 21.75,-63.032 -1.254,-0.119 -2.548,-0.188 -3.891,-0.188 -3.4,-0.001 -7.682,0.249 -10.703,0.755 z"
   id="path2998"
   inkscape:connector-curvature="0"
   style="fill:#f2e916" />
		<polygon
   points="237.979,147.922 251.231,152.594 256.017,125.941 221.916,142.191 234.302,146.672 250.248,133.395 "
   id="polygon3000"
   style="fill:#f2e916" />
		<polygon
   points="237.999,150.514 238.307,157.447 243.249,152.507 "
   id="polygon3002"
   style="fill:#f2e916" />
	</g>
</g>
</svg>