<?xml version="1.0" encoding="utf-8"?>
<!-- Generator: Adobe Illustrator 16.0.1, SVG Export Plug-In . SVG Version: 6.00 Build 0)  -->
<!DOCTYPE svg PUBLIC "-//W3C//DTD SVG 1.1//EN" "http://www.w3.org/Graphics/SVG/1.1/DTD/svg11.dtd">
<svg version="1.1" id="Layer_2" xmlns="http://www.w3.org/2000/svg" xmlns:xlink="http://www.w3.org/1999/xlink" x="0px" y="0px"
	 width="504px" height="360px" viewBox="0 0 504 360" enable-background="new 0 0 504 360" xml:space="preserve">
<g>
	<g>
		<path fill="#6ACEF5" d="M149.432,150.07h-32c-1.104,0-2,0.896-2,2v79.988c0,1.104,0.896,2,2,2h17.66c1.104,0,2-0.896,2-2v-20.93
			c0-1.105,0.895-2,2-2h10.34c20.398,0,32.109-10.83,32.109-29.592C181.541,160.898,169.83,150.07,149.432,150.07z M147.417,191.246
			h-8.326c-1.105,0-2-0.896-2-2v-19.547c0-1.105,0.895-2,2-2h8.326c9.568,0,12.59,6.547,12.59,11.838
			C160.007,185.078,156.985,191.246,147.417,191.246z"/>
		<path fill="#6ACEF5" d="M386.568,150.07h-122.81c-1.104,0-2,0.896-2,2v79.988c0,1.104,0.896,2,2,2h54.556c1.104,0,2-0.896,2-2
			v-13.754c0-1.105-0.896-2-2-2h-33.896c-0.553,0-1-0.447-1-1v-13.363c0-0.553,0.447-1,1-1H313.4c1.104,0,2-0.896,2-2v-13.754
			c0-1.104-0.896-2-2-2h-28.981c-0.553,0-1-0.448-1-1v-13.489c0-0.552,0.447-1,1-1l57.057,0.063c0.553,0,1,0.449,1,1v63.297
			c0,1.104,0.896,2,2,2h17.66c1.104,0,2-0.896,2-2v-63.297c0-0.551,0.447-1,1-1h21.433c1.104,0,2-0.896,2-2V152.07
			C388.568,150.967,387.673,150.07,386.568,150.07z"/>
	</g>
	<g>
		<path fill="#F2E916" d="M235.488,172.742c-0.799,2.488-1.557,5.004-2.244,7.569c-0.145,0.539-0.283,1.091-0.423,1.64
			c-6.436,27.812-2.946,45.998-1.735,51.919c0.281,0.118,0.58,0.188,0.882,0.188h16.331c1.105,0,2-0.896,2-2v-35.02
			C250.299,185.431,245.047,176.72,235.488,172.742z"/>
		<path fill="#F2E916" d="M211.767,171.099V149.3c0-1.104-0.896-2-2-2h-17.658c-1.104,0-2,0.896-2,2v82.759c0,1.104,0.896,2,2,2
			h11.109c0.504,0,0.991-0.191,1.393-0.495c3.131-25.071,12.497-46.884,21.75-63.032c-1.254-0.119-2.548-0.188-3.891-0.188
			C219.07,170.343,214.788,170.593,211.767,171.099z"/>
		<polygon fill="#F2E916" points="221.916,142.191 234.302,146.672 250.248,133.395 237.979,147.922 251.231,152.594 
			256.017,125.941 		"/>
		<polygon fill="#F2E916" points="237.999,150.514 238.307,157.447 243.249,152.507 		"/>
	</g>
</g>
</svg>
