<?xml version="1.0" encoding="UTF-8" standalone="no"?>
<!-- Generator: Adobe Illustrator 16.0.1, SVG Export Plug-In . SVG Version: 6.00 Build 0)  -->

<svg
   xmlns:dc="http://purl.org/dc/elements/1.1/"
   xmlns:cc="http://creativecommons.org/ns#"
   xmlns:rdf="http://www.w3.org/1999/02/22-rdf-syntax-ns#"
   xmlns:svg="http://www.w3.org/2000/svg"
   xmlns="http://www.w3.org/2000/svg"
   xmlns:sodipodi="http://sodipodi.sourceforge.net/DTD/sodipodi-0.dtd"
   xmlns:inkscape="http://www.inkscape.org/namespaces/inkscape"
   version="1.1"
   id="Layer_2"
   x="0px"
   y="0px"
   width="273.17001"
   height="130.05099"
   viewBox="0 0 273.17001 130.05099"
   enable-background="new 0 0 504 360"
   xml:space="preserve"
   inkscape:version="0.48.4 r9939"
   sodipodi:docname="phet-logo.svg"><metadata
   id="metadata3146"><rdf:RDF><cc:Work
       rdf:about=""><dc:format>image/svg+xml</dc:format><dc:type
         rdf:resource="http://purl.org/dc/dcmitype/StillImage" /></cc:Work></rdf:RDF></metadata><defs
   id="defs3144" /><sodipodi:namedview
   pagecolor="#ffffff"
   bordercolor="#666666"
   borderopacity="1"
   objecttolerance="10"
   gridtolerance="10"
   guidetolerance="10"
   inkscape:pageopacity="0"
   inkscape:pageshadow="2"
   inkscape:window-width="640"
   inkscape:window-height="480"
   id="namedview3142"
   showgrid="false"
   fit-margin-top="0"
   fit-margin-left="0"
   fit-margin-right="0"
   fit-margin-bottom="0"
   inkscape:zoom="0.65555556"
   inkscape:cx="136.585"
   inkscape:cy="65.026"
   inkscape:window-x="0"
   inkscape:window-y="0"
   inkscape:window-maximized="0"
   inkscape:current-layer="Layer_2" />
<g
   id="g3080"
   transform="translate(-115.415,-114.975)">
	<path
   d="m 149.437,139.104 h -32 c -1.104,0 -2,0.896 -2,2 v 79.988 c 0,1.104 0.896,2 2,2 h 17.66 c 1.104,0 2,-0.896 2,-2 v -20.93 c 0,-1.105 0.895,-2 2,-2 h 10.34 c 20.398,0 32.109,-10.83 32.109,-29.592 -0.001,-18.638 -11.712,-29.466 -32.109,-29.466 z m -2.015,41.175 h -8.326 c -1.105,0 -2,-0.896 -2,-2 v -19.547 c 0,-1.105 0.895,-2 2,-2 h 8.326 c 9.568,0 12.59,6.547 12.59,11.838 0,5.541 -3.022,11.709 -12.59,11.709 z"
   id="path3082"
   inkscape:connector-curvature="0"
   style="fill:#6acef5" />
	<path
   d="m 386.573,139.104 h -122.81 c -1.104,0 -2,0.896 -2,2 v 79.988 c 0,1.104 0.896,2 2,2 h 54.556 c 1.104,0 2,-0.896 2,-2 v -13.754 c 0,-1.105 -0.896,-2 -2,-2 h -33.896 c -0.553,0 -1,-0.447 -1,-1 v -13.363 c 0,-0.553 0.447,-1 1,-1 h 28.981 c 1.104,0 2,-0.896 2,-2 v -13.754 c 0,-1.104 -0.896,-2 -2,-2 h -28.981 c -0.553,0 -1,-0.448 -1,-1 v -13.489 c 0,-0.552 0.447,-1 1,-1 l 57.057,0.063 c 0.553,0 1,0.449 1,1 v 63.297 c 0,1.104 0.896,2 2,2 h 17.66 c 1.104,0 2,-0.896 2,-2 v -63.297 c 0,-0.551 0.447,-1 1,-1 h 21.433 c 1.104,0 2,-0.896 2,-2 v -13.691 c 0,-1.104 -0.895,-2 -2,-2 z"
   id="path3084"
   inkscape:connector-curvature="0"
   style="fill:#6acef5" />
</g>
<g
   id="g3086"
   transform="translate(-115.415,-114.975)">
	<rect
   x="115.415"
   y="230.961"
   width="3.5810001"
   height="13.895"
   id="rect3088"
   style="fill:#ffffff" />
	<polygon
   points="122.521,244.855 126.104,244.855 126.104,236.586 131.794,244.855 135.336,244.855 135.336,230.961 131.749,230.961 131.749,239.295 126.104,230.961 122.521,230.961 "
   id="polygon3090"
   style="fill:#ffffff" />
	<polygon
   points="145.4,244.855 145.4,234.21 149.446,234.21 149.446,230.961 137.818,230.961 137.818,234.21 141.818,234.21 141.818,244.855 "
   id="polygon3092"
   style="fill:#ffffff" />
	<polygon
   points="155.281,241.922 155.281,239.376 160.573,239.376 160.573,236.438 155.281,236.438 155.281,233.878 161.386,233.878 161.386,230.961 151.698,230.961 151.698,244.855 161.386,244.855 161.386,241.922 "
   id="polygon3094"
   style="fill:#ffffff" />
	<path
   d="m 175.345,235.479 c 0,-2.935 -2.291,-4.521 -5.599,-4.521 h -5.483 v 13.896 h 3.586 v -4.645 h 1.479 l 2.583,4.645 h 4 l -3.354,-5.186 c 1.606,-0.521 2.788,-1.896 2.788,-4.189 z m -5.37,2.044 h -2.126 v -3.646 h 2.126 c 0.933,0 1.79,0.706 1.79,1.833 0,1.103 -0.857,1.813 -1.79,1.813 z"
   id="path3096"
   inkscape:connector-curvature="0"
   style="fill:#ffffff" />
	<path
   d="m 183.25,230.961 -5.524,13.895 h 3.858 l 1.081,-3.332 h 4.542 l 1.085,3.332 h 3.855 l -5.523,-13.895 h -3.374 z m 0.27,7.916 1.42,-4.312 1.392,4.312 h -2.812 z"
   id="path3098"
   inkscape:connector-curvature="0"
   style="fill:#ffffff" />
	<path
   d="m 193.423,237.9 c 0,5.873 3.539,7.104 6.518,7.104 1.479,0 3.002,-0.396 4.459,-0.98 v -3.106 c -1.521,0.731 -2.815,1.005 -4.25,1.005 -1.646,0 -3.147,-0.732 -3.147,-4.021 0,-3.295 1.501,-4.022 3.147,-4.022 1.434,0 2.728,0.269 4.25,1.001 v -3.105 c -1.457,-0.582 -2.98,-0.979 -4.459,-0.979 -2.979,-0.002 -6.518,1.224 -6.518,7.103 z"
   id="path3100"
   inkscape:connector-curvature="0"
   style="fill:#ffffff" />
	<polygon
   points="213.886,244.855 213.886,234.21 217.928,234.21 217.928,230.961 206.302,230.961 206.302,234.21 210.301,234.21 210.301,244.855 "
   id="polygon3102"
   style="fill:#ffffff" />
	<rect
   x="220.201"
   y="230.961"
   width="3.585"
   height="13.895"
   id="rect3104"
   style="fill:#ffffff" />
	<polygon
   points="231.33,244.855 234.581,244.855 239.874,230.961 236.039,230.961 232.934,240.795 229.831,230.961 225.997,230.961 "
   id="polygon3106"
   style="fill:#ffffff" />
	<polygon
   points="245.605,241.922 245.605,239.376 250.897,239.376 250.897,236.438 245.605,236.438 245.605,233.878 251.71,233.878 251.71,230.961 242.023,230.961 242.023,244.855 251.71,244.855 251.71,241.922 "
   id="polygon3108"
   style="fill:#ffffff" />
	<path
   d="m 261.622,234.646 c 0,-1.541 1.23,-2.373 3.44,-2.373 1.415,0 2.561,0.438 3.333,0.875 v -1.545 c -0.896,-0.437 -2.065,-0.83 -3.481,-0.83 -3.542,0 -4.79,2 -4.79,3.873 0,4.648 7.665,2.605 7.665,6.666 0,1.834 -1.937,2.209 -3.543,2.209 -1.893,0 -3.184,-0.561 -3.998,-1.101 v 1.622 c 0.979,0.525 2.334,0.982 4.104,0.982 3.104,0 4.938,-1.4 4.938,-3.713 10e-4,-5.31 -7.668,-3.622 -7.668,-6.665 z"
   id="path3110"
   inkscape:connector-curvature="0"
   style="fill:#ffffff" />
	<rect
   x="272.37799"
   y="230.959"
   width="1.5"
   height="13.896"
   id="rect3112"
   style="fill:#ffffff" />
	<polygon
   points="277.484,244.855 278.984,244.855 278.984,233.42 283.879,240.501 288.796,233.42 288.796,244.855 290.296,244.855 290.296,230.961 288.674,230.961 283.879,238.023 279.108,230.961 277.484,230.961 "
   id="polygon3114"
   style="fill:#ffffff" />
	<path
   d="m 303.761,239.232 c 0,2.978 -1.353,4.417 -4.144,4.417 -2.794,0 -4.148,-1.439 -4.148,-4.417 v -8.271 h -1.5 v 8.186 c 0,3.793 2.001,5.879 5.648,5.879 3.645,0 5.646,-2.086 5.646,-5.879 v -8.186 h -1.502 v 8.271 z"
   id="path3116"
   inkscape:connector-curvature="0"
   style="fill:#ffffff" />
	<polygon
   points="317.373,244.855 317.373,243.398 310.267,243.398 310.267,230.961 308.765,230.961 308.765,244.855 "
   id="polygon3118"
   style="fill:#ffffff" />
	<path
   d="m 324.646,230.961 -5.542,13.895 h 1.622 l 1.67,-4.331 h 6.001 l 1.666,4.331 h 1.603 l -5.521,-13.895 h -1.499 z m -1.689,8.123 2.438,-6.354 2.438,6.354 h -4.876 z"
   id="path3120"
   inkscape:connector-curvature="0"
   style="fill:#ffffff" />
	<polygon
   points="337.38,244.855 337.38,232.418 342.274,232.418 342.274,230.961 330.963,230.961 330.963,232.418 335.879,232.418 335.879,244.855 "
   id="polygon3122"
   style="fill:#ffffff" />
	<rect
   x="344.54999"
   y="230.959"
   width="1.5"
   height="13.896"
   id="rect3124"
   style="fill:#ffffff" />
	<path
   d="m 355.489,230.773 c -4.271,0 -6.438,2.395 -6.438,7.127 0,4.726 2.167,7.124 6.438,7.124 4.293,0 6.46,-2.398 6.46,-7.124 0,-4.732 -2.167,-7.127 -6.46,-7.127 z m 0,12.832 c -3.417,0 -4.938,-1.747 -4.938,-5.705 0,-3.939 1.521,-5.712 4.938,-5.712 3.439,0 4.96,1.772 4.96,5.712 0,3.958 -1.52,5.705 -4.96,5.705 z"
   id="path3126"
   inkscape:connector-curvature="0"
   style="fill:#ffffff" />
	<polygon
   points="364.893,244.855 366.393,244.855 366.393,233.148 374.704,244.855 376.394,244.855 376.394,230.961 374.894,230.961 374.894,242.666 366.602,230.961 364.893,230.961 "
   id="polygon3128"
   style="fill:#ffffff" />
	<path
   d="m 380.916,234.646 c 0,-1.541 1.229,-2.373 3.438,-2.373 1.417,0 2.562,0.438 3.337,0.875 v -1.545 c -0.896,-0.437 -2.065,-0.83 -3.481,-0.83 -3.542,0 -4.792,2 -4.792,3.873 0,4.648 7.669,2.605 7.669,6.666 0,1.834 -1.938,2.209 -3.545,2.209 -1.895,0 -3.186,-0.561 -4,-1.101 v 1.622 c 0.979,0.525 2.336,0.982 4.106,0.982 3.104,0 4.937,-1.4 4.937,-3.713 0,-5.31 -7.669,-3.622 -7.669,-6.665 z"
   id="path3130"
   inkscape:connector-curvature="0"
   style="fill:#ffffff" />
</g>
<g
   id="g3132"
   transform="translate(-115.415,-114.975)">
	<path
   d="m 235.493,161.775 c -0.799,2.488 -1.557,5.004 -2.244,7.569 -0.145,0.539 -0.283,1.091 -0.423,1.64 -6.436,27.812 -2.946,45.998 -1.735,51.919 0.281,0.118 0.58,0.188 0.882,0.188 h 16.331 c 1.105,0 2,-0.896 2,-2 v -35.02 c 0,-11.607 -5.252,-20.318 -14.811,-24.296 z"
   id="path3134"
   inkscape:connector-curvature="0"
   style="fill:#f2e916" />
	<path
   d="m 211.772,160.132 v -21.799 c 0,-1.104 -0.896,-2 -2,-2 h -17.658 c -1.104,0 -2,0.896 -2,2 v 82.759 c 0,1.104 0.896,2 2,2 h 11.109 c 0.504,0 0.991,-0.191 1.393,-0.495 3.131,-25.071 12.497,-46.884 21.75,-63.032 -1.254,-0.119 -2.548,-0.188 -3.891,-0.188 -3.4,-0.001 -7.682,0.249 -10.703,0.755 z"
   id="path3136"
   inkscape:connector-curvature="0"
   style="fill:#f2e916" />
	<polygon
   points="237.983,136.955 251.236,141.627 256.021,114.975 221.92,131.225 234.307,135.705 250.253,122.428 "
   id="polygon3138"
   style="fill:#f2e916" />
	<polygon
   points="238.004,139.547 238.312,146.48 243.254,141.54 "
   id="polygon3140"
   style="fill:#f2e916" />
</g>
</svg>