<?xml version="1.0" encoding="utf-8"?>
<!-- Generator: Adobe Illustrator 15.0.2, SVG Export Plug-In . SVG Version: 6.00 Build 0)  -->
<!DOCTYPE svg PUBLIC "-//W3C//DTD SVG 1.1//EN" "http://www.w3.org/Graphics/SVG/1.1/DTD/svg11.dtd">
<svg version="1.1" id="Layer_2" xmlns="http://www.w3.org/2000/svg" xmlns:xlink="http://www.w3.org/1999/xlink" x="0px" y="0px"
	 width="504px" height="360px" viewBox="0 0 504 360" enable-background="new 0 0 504 360" xml:space="preserve">
<g>
	<path fill="#6ACEF5" d="M149.437,139.104h-32c-1.104,0-2,0.896-2,2v79.988c0,1.104,0.896,2,2,2h17.66c1.104,0,2-0.896,2-2v-20.93
		c0-1.105,0.895-2,2-2h10.34c20.398,0,32.109-10.83,32.109-29.592C181.545,149.932,169.834,139.104,149.437,139.104z
		 M147.422,180.279h-8.326c-1.105,0-2-0.896-2-2v-19.547c0-1.105,0.895-2,2-2h8.326c9.568,0,12.59,6.547,12.59,11.838
		C160.012,174.111,156.99,180.279,147.422,180.279z"/>
	<path fill="#6ACEF5" d="M386.573,139.104h-122.81c-1.104,0-2,0.896-2,2v79.988c0,1.104,0.896,2,2,2h54.555c1.104,0,2-0.896,2-2
		v-13.754c0-1.105-0.896-2-2-2h-33.896c-0.553,0-1-0.447-1-1v-13.363c0-0.553,0.447-1,1-1h28.981c1.104,0,2-0.896,2-2v-13.753
		c0-1.104-0.896-2-2-2h-28.981c-0.553,0-1-0.448-1-1v-13.489c0-0.552,0.447-1,1-1l57.058,0.063c0.553,0,1,0.449,1,1v63.297
		c0,1.104,0.896,2,2,2h17.66c1.104,0,2-0.896,2-2v-63.297c0-0.551,0.446-1,1-1h21.433c1.104,0,2-0.896,2-2v-13.691
		C388.573,140,387.678,139.104,386.573,139.104z"/>
</g>
<g>
	<rect x="115.415" y="230.961" fill="#FFFFFF" width="3.581" height="13.895"/>
	<polygon fill="#FFFFFF" points="131.749,239.295 126.104,230.961 122.521,230.961 122.521,244.855 126.104,244.855 
		126.104,236.586 131.794,244.855 135.336,244.855 135.336,230.961 131.749,230.961 	"/>
	<polygon fill="#FFFFFF" points="137.818,234.21 141.818,234.21 141.818,244.855 145.4,244.855 145.4,234.21 149.446,234.21 
		149.446,230.961 137.818,230.961 	"/>
	<polygon fill="#FFFFFF" points="151.698,244.855 161.386,244.855 161.386,241.922 155.281,241.922 155.281,239.376 
		160.573,239.376 160.573,236.438 155.281,236.438 155.281,233.878 161.386,233.878 161.386,230.961 151.698,230.961 	"/>
	<path fill="#FFFFFF" d="M175.345,235.479c0-2.935-2.291-4.521-5.599-4.521h-5.483v13.896h3.586v-4.645h1.479l2.583,4.645h4
		l-3.354-5.186C174.163,239.146,175.345,237.771,175.345,235.479z M169.975,237.523h-2.126v-3.646h2.126
		c0.933,0,1.79,0.706,1.79,1.833C171.765,236.813,170.908,237.523,169.975,237.523z"/>
	<path fill="#FFFFFF" d="M183.25,230.961l-5.524,13.895h3.858l1.081-3.332h4.542l1.085,3.332h3.855l-5.523-13.895H183.25z
		 M183.52,238.877l1.42-4.313l1.392,4.313H183.52z"/>
	<path fill="#FFFFFF" d="M193.423,237.9c0,5.873,3.539,7.104,6.518,7.104c1.479,0,3.002-0.396,4.459-0.98v-3.105
		c-1.521,0.73-2.815,1.005-4.25,1.005c-1.646,0-3.147-0.731-3.147-4.021c0-3.295,1.501-4.022,3.147-4.022
		c1.434,0,2.728,0.269,4.25,1.001v-3.105c-1.457-0.582-2.98-0.979-4.459-0.979C196.962,230.795,193.423,232.021,193.423,237.9z"/>
	<polygon fill="#FFFFFF" points="206.302,234.21 210.301,234.21 210.301,244.855 213.886,244.855 213.886,234.21 217.928,234.21 
		217.928,230.961 206.302,230.961 	"/>
	<rect x="220.201" y="230.961" fill="#FFFFFF" width="3.585" height="13.895"/>
	<polygon fill="#FFFFFF" points="232.934,240.795 229.831,230.961 225.997,230.961 231.33,244.855 234.581,244.855 239.874,230.961 
		236.039,230.961 	"/>
	<polygon fill="#FFFFFF" points="242.023,244.855 251.71,244.855 251.71,241.922 245.605,241.922 245.605,239.376 250.897,239.376 
		250.897,236.438 245.605,236.438 245.605,233.878 251.71,233.878 251.71,230.961 242.023,230.961 	"/>
	<path fill="#FFFFFF" d="M261.622,234.646c0-1.541,1.229-2.373,3.44-2.373c1.414,0,2.561,0.438,3.332,0.875v-1.545
		c-0.896-0.438-2.064-0.83-3.48-0.83c-3.542,0-4.79,2-4.79,3.873c0,4.647,7.665,2.604,7.665,6.666c0,1.834-1.938,2.209-3.543,2.209
		c-1.893,0-3.184-0.562-3.998-1.102v1.622c0.979,0.524,2.334,0.981,4.104,0.981c3.104,0,4.938-1.399,4.938-3.713
		C269.291,236.001,261.622,237.689,261.622,234.646z"/>
	<rect x="272.378" y="230.959" fill="#FFFFFF" width="1.5" height="13.896"/>
	<polygon fill="#FFFFFF" points="283.879,238.023 279.107,230.961 277.484,230.961 277.484,244.855 278.984,244.855 278.984,233.42 
		283.879,240.501 288.796,233.42 288.796,244.855 290.296,244.855 290.296,230.961 288.674,230.961 	"/>
	<path fill="#FFFFFF" d="M303.761,239.232c0,2.978-1.353,4.416-4.144,4.416c-2.795,0-4.148-1.438-4.148-4.416v-8.271h-1.5v8.186
		c0,3.793,2.001,5.879,5.648,5.879c3.645,0,5.646-2.086,5.646-5.879v-8.186h-1.503V239.232L303.761,239.232z"/>
	<polygon fill="#FFFFFF" points="310.268,230.961 308.766,230.961 308.766,244.855 317.373,244.855 317.373,243.398 
		310.268,243.398 	"/>
	<path fill="#FFFFFF" d="M324.646,230.961l-5.543,13.895h1.623l1.67-4.33h6l1.666,4.33h1.604l-5.521-13.895H324.646z
		 M322.957,239.084l2.438-6.354l2.438,6.354H322.957z"/>
	<polygon fill="#FFFFFF" points="330.963,232.418 335.879,232.418 335.879,244.855 337.38,244.855 337.38,232.418 342.273,232.418 
		342.273,230.961 330.963,230.961 	"/>
	<rect x="344.55" y="230.959" fill="#FFFFFF" width="1.5" height="13.896"/>
	<path fill="#FFFFFF" d="M355.489,230.773c-4.271,0-6.438,2.395-6.438,7.127c0,4.726,2.167,7.123,6.438,7.123
		c4.293,0,6.46-2.397,6.46-7.123C361.949,233.168,359.782,230.773,355.489,230.773z M355.489,243.605
		c-3.417,0-4.938-1.748-4.938-5.705c0-3.939,1.521-5.713,4.938-5.713c3.438,0,4.96,1.772,4.96,5.713
		C360.449,241.857,358.93,243.605,355.489,243.605z"/>
	<polygon fill="#FFFFFF" points="374.895,242.666 366.602,230.961 364.893,230.961 364.893,244.855 366.393,244.855 
		366.393,233.148 374.704,244.855 376.395,244.855 376.395,230.961 374.895,230.961 	"/>
	<path fill="#FFFFFF" d="M380.916,234.646c0-1.541,1.229-2.373,3.438-2.373c1.418,0,2.563,0.438,3.338,0.875v-1.545
		c-0.896-0.438-2.065-0.83-3.481-0.83c-3.542,0-4.792,2-4.792,3.873c0,4.647,7.669,2.604,7.669,6.666
		c0,1.834-1.938,2.209-3.545,2.209c-1.896,0-3.187-0.562-4-1.102v1.622c0.979,0.524,2.336,0.981,4.106,0.981
		c3.104,0,4.937-1.399,4.937-3.713C388.585,236.001,380.916,237.689,380.916,234.646z"/>
</g>
<g>
	<path fill="#F2E916" d="M235.493,161.775c-0.799,2.488-1.557,5.004-2.244,7.569c-0.145,0.539-0.283,1.091-0.423,1.64
		c-6.436,27.812-2.946,45.999-1.735,51.918c0.281,0.119,0.58,0.188,0.882,0.188h16.331c1.105,0,2-0.896,2-2V186.07
		C250.304,174.464,245.052,165.753,235.493,161.775z"/>
	<path fill="#F2E916" d="M211.772,160.132v-21.799c0-1.104-0.896-2-2-2h-17.658c-1.104,0-2,0.896-2,2v82.759c0,1.104,0.896,2,2,2
		h11.109c0.504,0,0.991-0.191,1.393-0.494c3.131-25.072,12.497-46.885,21.75-63.033c-1.254-0.119-2.548-0.188-3.891-0.188
		C219.075,159.376,214.793,159.626,211.772,160.132z"/>
	<polygon fill="#F2E916" points="221.92,131.225 234.307,135.705 250.253,122.428 237.983,136.955 251.236,141.627 256.021,114.975 
			"/>
	<polygon fill="#F2E916" points="238.004,139.547 238.312,146.48 243.254,141.54 	"/>
</g>
<text transform="matrix(1 0 0 1 194.3442 297.876)"><tspan x="0" y="0" fill="#FFFFFF" font-family="'Tahoma'" font-size="29">L</tspan><tspan x="14.893" y="0" fill="#FFFFFF" font-family="'Tahoma'" font-size="29">oading...</tspan></text>
</svg>
